<svg width="665" height="673" viewBox="0 0 665 673" fill="none" xmlns="http://www.w3.org/2000/svg">
<g style="mix-blend-mode:overlay">
<path d="M16.1609 1C46.8235 42.0538 12.5836 88.7292 23.8265 136.086C35.5805 184.805 60.4513 184.124 77.3158 249.878C88.0477 291.443 12.7539 411.198 9.34697 453.955C5.42897 505.4 41.5427 531.633 27.0632 581.886C18.3754 611.867 9.68772 641.678 0.999987 671.659" stroke="url(#paint0_linear_170_2339)" stroke-miterlimit="10"/>
<path d="M33.7074 1C54.1491 28.2556 45.8021 58.2372 41.373 89.0701C39.1585 104.401 37.9661 119.903 41.7137 135.575C53.127 184.124 77.9978 184.295 93.3291 249.197C96.3953 262.143 91.1146 282.074 82.7676 304.73C64.8811 352.768 34.0481 412.731 27.9156 445.778C27.4046 448.504 27.0638 451.059 26.8935 453.444C24.1679 495.52 47.5055 521.072 48.1869 556.504C48.3573 564.34 47.3352 572.687 44.78 581.716C36.2626 611.697 27.4045 641.678 18.7168 671.659" stroke="url(#paint1_linear_170_2339)" stroke-miterlimit="10"/>
<path d="M51.2534 1C71.5248 28.0853 63.348 57.8961 59.0893 88.7291C56.8748 103.89 55.6823 119.392 59.2596 135.064C70.3322 183.272 95.3734 184.465 109.001 248.515C111.727 261.462 106.276 281.392 97.7583 303.878C79.3607 352.087 50.4016 411.709 44.9505 445.267C44.4394 447.993 44.0987 450.548 44.0987 452.933C42.0546 494.838 64.8811 520.731 65.5625 556.164C65.7329 564 64.8812 572.347 62.326 581.375C53.9789 611.527 45.1208 641.508 36.2627 671.489" stroke="url(#paint2_linear_170_2339)" stroke-miterlimit="10"/>
<path d="M68.7982 1C89.0696 28.0853 81.0633 57.7259 76.8046 88.3885C74.59 103.549 73.5679 118.881 76.9749 134.553C87.8771 182.421 112.748 184.635 125.013 247.834C127.568 260.951 121.606 280.711 112.918 303.027C94.0096 351.576 66.9243 410.686 62.1546 444.756C61.8139 447.481 61.4732 450.037 61.3028 452.422C59.7697 493.986 82.0853 520.22 82.937 555.993C83.1074 563.829 82.2556 572.176 79.7004 581.205C71.5237 611.356 62.4953 641.338 53.8076 671.659" stroke="url(#paint3_linear_170_2339)" stroke-miterlimit="10"/>
<path d="M86.515 1C106.616 27.9149 98.9504 57.5556 94.5214 88.0479C92.4772 103.038 91.2848 118.54 94.6918 134.042C105.253 181.569 130.124 184.805 140.856 247.153C143.07 260.44 136.938 280.03 128.08 302.175C108.66 350.894 83.4488 409.665 79.3605 444.245C79.0198 446.971 78.679 449.526 78.679 451.911C77.8273 493.305 99.6318 519.879 100.484 555.652C100.654 563.659 99.8021 572.006 97.4173 581.034C89.4109 611.356 80.3825 641.338 71.5244 671.659" stroke="url(#paint4_linear_170_2339)" stroke-miterlimit="10"/>
<path d="M104.06 1C123.991 27.7446 116.496 57.3854 112.237 87.7073C110.193 102.698 109.171 118.029 112.407 133.531C122.628 180.717 147.329 184.976 156.698 246.471C158.742 259.929 152.098 279.348 143.07 301.323C123.139 350.213 99.8017 408.642 96.3947 443.734C96.0541 446.46 95.8836 449.015 95.8836 451.4C95.5429 492.624 116.836 519.539 117.859 555.312C118.029 563.318 117.177 571.665 114.792 580.693C106.956 611.186 97.7575 641.167 88.8994 671.489" stroke="url(#paint5_linear_170_2339)" stroke-miterlimit="10"/>
<path d="M121.607 1C141.537 27.5743 134.212 57.0447 129.954 87.3666C127.91 102.357 126.888 117.518 130.124 133.02C140.175 179.865 164.705 185.317 172.541 245.79C174.244 259.248 167.26 278.667 158.232 300.471C137.79 349.532 116.326 407.62 113.6 443.223C113.43 445.948 113.26 448.504 113.26 450.889C113.43 491.942 134.383 519.198 135.405 554.971C135.575 562.978 134.723 571.495 132.509 580.523C124.843 611.016 115.474 640.997 106.616 671.659" stroke="url(#paint6_linear_170_2339)" stroke-miterlimit="10"/>
<path d="M139.151 1C158.911 27.5742 151.927 56.8741 147.668 87.0256C145.624 101.846 144.602 117.177 147.838 132.509C157.378 179.014 181.908 185.487 188.381 245.108C189.914 258.736 182.589 277.986 173.22 299.62C152.267 348.85 132.507 406.428 130.463 442.882C130.293 445.608 130.122 448.163 130.122 450.548C130.974 491.431 151.416 519.028 152.438 554.971C152.608 563.148 151.927 571.495 149.542 580.523C141.876 611.186 132.677 641.167 123.819 671.829" stroke="url(#paint7_linear_170_2339)" stroke-miterlimit="10"/>
<path d="M156.697 1C176.457 27.4039 169.473 56.7038 165.385 86.685C163.341 101.505 162.489 116.666 165.555 131.998C174.924 178.162 199.114 185.828 204.224 244.427C205.417 258.225 197.751 277.304 188.382 298.768C166.918 348.169 149.031 405.406 147.669 442.371C147.498 445.097 147.498 447.652 147.498 450.037C148.861 490.58 168.792 518.687 169.984 554.63C170.325 562.807 169.473 571.154 167.259 580.182C159.763 610.845 150.394 640.997 141.536 671.659" stroke="url(#paint8_linear_170_2339)" stroke-miterlimit="10"/>
<path d="M174.414 1C194.004 27.2336 187.361 56.3632 183.273 86.3444C181.228 100.994 180.377 116.155 183.443 131.487C192.471 177.31 216.49 186.168 220.238 243.575C221.09 257.544 213.083 276.453 203.714 297.746C181.569 347.488 165.727 404.213 165.045 441.69C165.045 444.416 164.875 446.971 165.045 449.356C166.919 489.728 186.509 518.176 187.702 554.119C188.042 562.296 187.19 570.813 185.146 579.842C177.821 610.675 168.452 640.826 159.424 671.489" stroke="url(#paint9_linear_170_2339)" stroke-miterlimit="10"/>
<path d="M191.96 1C211.379 27.0632 204.906 56.1929 200.988 86.0038C199.114 100.654 198.263 115.644 201.159 130.975C209.846 176.458 233.525 186.338 236.08 242.894C236.761 257.033 228.244 275.771 218.704 296.894C196.048 346.806 181.909 403.021 182.08 441.179C182.08 443.904 182.08 446.46 182.25 448.844C184.635 489.047 203.714 517.665 205.077 553.778C205.417 561.955 204.566 570.473 202.521 579.501C195.367 610.334 185.827 640.486 176.799 671.489" stroke="url(#paint10_linear_170_2339)" stroke-miterlimit="10"/>
<path d="M209.505 1C228.925 26.8929 222.622 56.0227 218.704 85.6632C216.83 100.313 215.978 115.303 218.874 130.464C227.221 175.606 250.559 186.679 251.922 242.213C252.263 256.522 243.575 275.09 233.865 296.043C210.698 346.125 198.262 401.999 199.284 440.668C199.284 443.393 199.284 445.948 199.455 448.333C202.351 488.365 221.089 517.324 222.452 553.608C222.792 561.955 222.111 570.473 220.067 579.331C213.083 610.334 203.543 640.486 194.515 671.489" stroke="url(#paint11_linear_170_2339)" stroke-miterlimit="10"/>
<path d="M227.052 1C246.301 26.8929 240.339 55.852 236.421 85.3221C234.547 99.8017 233.696 114.793 236.421 129.954C244.598 174.925 267.424 187.19 267.595 241.531C267.595 256.011 258.566 274.408 248.686 295.191C225.008 345.443 214.446 400.977 216.15 440.157C216.32 442.882 216.32 445.437 216.491 447.822C219.897 487.513 238.295 516.984 239.658 553.268C239.998 561.615 239.317 570.132 237.273 579.161C230.459 610.334 220.749 640.486 211.721 671.489" stroke="url(#paint12_linear_170_2339)" stroke-miterlimit="10"/>
<path d="M244.597 1C263.846 26.7225 257.884 55.5114 254.136 84.9815C252.262 99.4611 251.581 114.282 254.136 129.442C261.972 174.074 284.288 187.531 283.436 240.85C283.265 255.5 273.726 273.897 263.846 294.339C239.486 344.762 230.798 399.784 233.354 439.645C233.524 442.371 233.694 444.926 233.865 447.311C237.953 486.832 255.669 516.643 257.202 552.927C257.543 561.274 256.862 569.791 254.988 578.82C248.344 609.994 238.464 640.145 229.436 671.489" stroke="url(#paint13_linear_170_2339)" stroke-miterlimit="10"/>
<path d="M262.315 1C281.394 26.5522 275.772 55.3411 272.025 84.6409C270.151 98.9501 269.469 113.941 272.025 128.931C279.52 173.222 301.495 187.872 299.45 240.168C298.939 254.989 289.059 273.216 279.009 293.487C254.138 344.081 247.154 398.762 250.561 439.135C250.731 441.86 250.901 444.416 251.242 446.8C255.841 486.151 273.217 516.302 274.75 552.586C275.091 560.933 274.409 569.621 272.536 578.649C266.062 609.993 256.182 640.145 246.983 671.489" stroke="url(#paint14_linear_170_2339)" stroke-miterlimit="10"/>
<path d="M279.859 1C298.768 26.3818 293.487 55.1708 289.739 84.3003C287.866 98.6095 287.355 113.43 289.739 128.42C297.064 172.37 318.358 188.212 315.292 239.487C314.44 254.477 304.389 272.535 294.168 292.636C268.787 343.57 263.506 397.57 267.764 438.624C268.105 441.349 268.276 443.904 268.446 446.289C273.556 485.469 290.421 515.962 292.124 552.416C292.465 560.933 291.783 569.45 290.08 578.479C283.777 609.823 273.727 640.145 264.698 671.489" stroke="url(#paint15_linear_170_2339)" stroke-miterlimit="10"/>
<path d="M297.404 1C316.313 26.2115 311.032 54.8302 307.455 83.9597C305.751 98.2689 305.07 112.918 307.455 127.909C314.439 171.518 335.221 188.553 331.133 238.806C329.94 253.967 319.549 271.853 309.328 291.954C283.265 343.058 280.029 396.718 284.969 438.453C285.309 441.179 285.48 443.734 285.82 446.119C291.442 485.128 307.966 515.791 309.669 552.416C310.01 560.933 309.499 569.621 307.625 578.479C301.492 609.993 291.442 640.315 282.243 671.829" stroke="url(#paint16_linear_170_2339)" stroke-miterlimit="10"/>
<path d="M314.952 1C333.69 26.2115 328.75 54.6595 325.173 83.6187C323.469 97.7575 322.788 112.408 325.173 127.398C331.816 170.667 351.917 188.894 347.148 238.124C345.615 253.456 334.883 271.172 324.492 291.102C297.917 342.377 296.384 395.696 302.176 437.942C302.517 440.668 302.857 443.223 303.198 445.778C309.331 484.447 325.514 515.621 327.217 552.245C327.558 560.763 327.047 569.45 325.343 578.479C319.381 609.993 309.16 640.315 299.961 672" stroke="url(#paint17_linear_170_2339)" stroke-miterlimit="10"/>
<path d="M332.496 1C351.235 26.0411 346.465 54.4893 342.888 83.278C341.184 97.4169 340.673 112.067 342.888 126.887C349.361 169.815 368.781 189.234 362.989 237.443C361.115 252.944 350.042 270.49 339.651 290.251C312.566 341.696 312.566 394.504 319.38 437.431C319.72 440.157 320.061 442.712 320.572 445.267C327.216 483.766 342.888 515.28 344.761 551.905C345.272 560.422 344.591 569.11 342.888 578.138C337.096 609.823 326.875 640.145 317.506 671.829" stroke="url(#paint18_linear_170_2339)" stroke-miterlimit="10"/>
<path d="M350.213 1C368.781 25.8708 364.181 54.319 360.774 82.9374C359.071 96.9059 358.56 111.556 360.774 126.376C366.907 168.963 385.645 189.745 379.002 236.591C376.787 252.433 365.374 269.639 354.812 289.229C327.045 340.844 328.919 393.311 336.585 436.75C337.096 439.475 337.437 442.031 337.777 444.586C344.932 482.914 360.263 514.769 362.137 551.564C362.648 560.252 361.967 568.94 360.434 577.968C354.642 609.823 344.421 640.145 335.222 672" stroke="url(#paint19_linear_170_2339)" stroke-miterlimit="10"/>
<path d="M367.758 1C386.155 25.7004 381.897 53.9784 378.49 82.5968C376.786 96.5653 376.446 111.045 378.49 125.865C384.282 168.111 402.338 190.086 394.843 235.91C392.288 251.922 380.534 268.957 369.972 288.377C341.695 340.163 345.272 392.289 353.789 436.238C354.3 438.964 354.641 441.519 355.152 444.075C362.648 482.233 377.808 514.428 379.682 551.223C380.193 559.911 379.682 568.599 377.979 577.627C372.357 609.482 361.966 639.804 352.767 671.829" stroke="url(#paint20_linear_170_2339)" stroke-miterlimit="10"/>
<path d="M385.304 1C403.702 25.5301 399.614 53.8081 396.207 82.2562C394.503 96.0544 394.163 110.704 396.207 125.354C401.828 167.259 419.033 190.427 410.686 235.228C407.62 251.411 395.696 268.276 385.134 287.525C356.175 339.481 361.626 391.097 370.995 435.728C371.506 438.453 372.017 441.008 372.528 443.564C380.535 481.381 395.185 514.088 397.229 550.883C397.74 559.57 397.229 568.428 395.696 577.287C390.244 609.312 379.853 639.634 370.484 671.659" stroke="url(#paint21_linear_170_2339)" stroke-miterlimit="10"/>
<path d="M402.849 1C421.077 25.5301 417.159 53.6375 413.922 81.9152C412.389 95.7133 412.048 110.193 413.752 124.843C419.032 166.408 435.556 190.768 426.357 234.547C422.95 250.9 410.856 267.595 399.953 286.673C370.483 338.8 377.468 390.074 387.859 435.217C388.54 437.942 388.881 440.497 389.562 443.052C398.08 480.699 412.389 513.577 414.433 550.712C414.944 559.571 414.433 568.258 413.07 577.286C407.79 609.312 397.228 639.804 387.859 672" stroke="url(#paint22_linear_170_2339)" stroke-miterlimit="10"/>
<path d="M420.567 1C438.794 25.3597 435.046 53.2968 431.81 81.5746C430.277 95.3727 429.936 109.682 431.639 124.332C436.579 165.556 452.251 191.108 442.371 233.866C438.624 250.389 426.188 266.913 415.286 285.822C385.134 338.119 393.992 389.052 405.235 434.706C405.917 437.261 406.428 439.986 407.109 442.542C416.138 480.018 429.936 513.236 432.15 550.371C432.661 559.23 432.15 568.088 430.787 576.946C425.677 609.142 415.116 639.634 405.746 671.829" stroke="url(#paint23_linear_170_2339)" stroke-miterlimit="10"/>
<path d="M438.112 1C456.169 25.1894 452.591 53.1266 449.525 81.234C447.992 94.8618 447.651 109.171 449.355 123.821C454.124 164.704 468.774 191.449 458.213 233.184C453.954 249.878 441.348 266.232 430.276 284.97C399.443 337.437 410.004 388.03 422.269 434.194C422.951 436.75 423.462 439.475 424.143 442.031C433.683 479.337 447.14 512.895 449.355 550.031C449.866 558.889 449.525 567.747 448.162 576.775C443.222 609.141 432.49 639.463 423.121 671.829" stroke="url(#paint24_linear_170_2339)" stroke-miterlimit="10"/>
<path d="M455.66 1C473.546 25.019 470.309 52.9563 467.243 80.8933C465.71 94.5212 465.54 108.83 467.073 123.31C471.502 164.023 485.47 191.79 474.057 232.503C469.458 249.367 456.511 265.55 445.439 284.118C414.095 336.756 426.36 386.838 439.306 433.854C439.987 436.409 440.669 439.135 441.35 441.69C451.401 478.826 464.518 512.725 466.732 549.861C467.243 558.719 466.902 567.577 465.54 576.605C460.77 608.971 450.038 639.464 440.499 672" stroke="url(#paint25_linear_170_2339)" stroke-miterlimit="10"/>
<path d="M473.204 1C491.09 24.8487 488.024 52.786 484.958 80.5527C483.425 94.0102 483.254 108.319 484.787 122.799C488.876 163.171 501.993 191.96 489.898 231.821C484.787 248.686 471.671 264.869 460.428 283.267C428.402 336.074 442.371 385.816 456.339 433.343C457.191 435.898 457.872 438.624 458.554 441.179C468.945 478.144 481.721 512.384 484.106 549.69C484.617 558.719 484.276 567.577 483.084 576.435C478.485 608.971 467.582 639.464 458.043 672" stroke="url(#paint26_linear_170_2339)" stroke-miterlimit="10"/>
<path d="M490.75 1C508.466 24.8487 505.57 52.445 502.674 80.2117C501.141 93.6692 501.141 107.808 502.504 122.288C506.422 162.32 518.516 192.301 505.74 231.14C500.119 248.175 486.832 264.188 475.589 282.415C443.052 335.393 458.554 384.793 473.545 432.832C474.396 435.387 475.078 438.112 475.929 440.668C486.832 477.292 499.267 512.043 501.652 549.35C502.163 558.378 501.822 567.236 500.63 576.265C496.201 608.801 485.128 639.293 475.759 672" stroke="url(#paint27_linear_170_2339)" stroke-miterlimit="10"/>
<path d="M508.467 1C526.183 24.6783 523.458 52.2748 520.562 79.8711C519.199 93.3286 519.029 107.297 520.391 121.777C523.969 161.468 535.041 192.642 521.754 230.459C515.622 247.664 502.164 263.336 490.921 281.563C457.703 334.712 475.079 383.772 490.921 432.321C491.773 434.876 492.625 437.601 493.306 440.157C504.719 476.611 516.644 511.533 519.199 549.009C519.88 558.037 519.539 567.066 518.347 575.924C514.088 608.63 503.016 639.123 493.476 672" stroke="url(#paint28_linear_170_2339)" stroke-miterlimit="10"/>
<path d="M526.013 1C543.559 24.508 541.174 52.1045 538.278 79.5305C536.915 92.8176 536.915 106.956 538.107 121.266C541.514 160.616 551.565 192.812 537.596 229.607C531.123 246.982 517.325 262.484 505.912 280.541C472.013 333.689 491.091 382.579 507.956 431.639C508.808 434.194 509.659 436.92 510.511 439.475C522.435 475.759 534.019 511.021 536.574 548.498C537.256 557.526 536.915 566.555 535.723 575.413C531.805 608.29 520.391 638.782 510.852 671.659" stroke="url(#paint29_linear_170_2339)" stroke-miterlimit="10"/>
<path d="M543.559 1C560.934 24.3376 558.719 51.7639 555.994 79.1899C554.631 92.477 554.631 106.445 555.823 120.755C558.89 159.764 568.088 192.982 553.439 228.925C546.454 246.301 532.486 261.803 521.072 279.689C486.492 333.008 507.274 381.557 525.161 431.128C526.183 433.683 527.035 436.409 527.886 438.964C540.151 475.078 551.565 510.681 554.12 548.327C554.801 557.526 554.461 566.384 553.439 575.413C549.691 608.29 538.278 638.952 528.568 671.829" stroke="url(#paint30_linear_170_2339)" stroke-miterlimit="10"/>
<path d="M561.103 1C578.478 24.3376 576.434 51.5936 573.709 78.8493C572.346 91.966 572.346 105.934 573.368 120.243C576.094 158.912 584.441 193.153 569.28 228.244C561.614 245.79 547.646 261.121 536.062 278.837C500.97 332.327 523.286 380.535 542.194 430.617C543.216 433.173 544.068 435.898 545.09 438.453C557.866 474.396 568.769 510.34 571.494 547.987C572.176 557.186 571.835 566.214 570.813 575.072C567.065 608.119 555.652 638.612 546.112 671.659" stroke="url(#paint31_linear_170_2339)" stroke-miterlimit="10"/>
<path d="M578.65 1C595.855 24.1673 594.151 51.4229 591.426 78.5082C590.063 91.625 590.233 105.594 591.085 119.733C593.64 158.061 600.795 193.323 585.123 227.562C576.946 245.279 562.807 260.44 551.224 277.986C515.451 331.645 539.47 379.513 559.4 430.106C560.422 432.661 561.445 435.387 562.296 437.942C575.583 473.715 586.145 509.999 588.871 547.646C589.552 556.845 589.381 565.873 588.359 574.902C584.782 607.949 573.369 638.612 563.659 671.829" stroke="url(#paint32_linear_170_2339)" stroke-miterlimit="10"/>
<path d="M596.366 1C613.571 23.9969 611.868 51.2527 609.312 78.1676C607.95 91.2844 608.12 105.083 608.972 119.222C611.357 157.209 617.489 193.493 601.136 226.881C592.448 244.597 578.139 259.758 566.385 277.134C529.931 330.964 555.653 378.661 576.606 429.595C577.628 432.15 578.65 434.706 579.672 437.431C593.3 473.034 603.521 509.659 606.417 547.306C607.098 556.675 606.928 565.703 606.076 574.561C602.669 607.779 591.085 638.442 581.375 671.659" stroke="url(#paint33_linear_170_2339)" stroke-miterlimit="10"/>
<path d="M613.911 1C630.946 23.8266 629.584 50.9121 627.028 77.827C625.836 90.7734 626.006 104.572 626.688 118.71C628.732 156.357 633.842 193.664 616.978 226.2C607.779 243.916 593.299 259.077 581.545 276.282C544.41 330.112 571.836 377.639 593.811 429.084C594.833 431.639 596.025 434.195 597.047 436.92C611.186 472.352 621.066 509.148 623.962 547.135C624.643 556.504 624.473 565.533 623.621 574.391C620.385 607.779 608.631 638.271 598.921 671.659" stroke="url(#paint34_linear_170_2339)" stroke-miterlimit="10"/>
<path d="M631.456 1C648.321 23.6563 647.128 50.7418 644.744 77.4864C643.551 90.4328 643.721 104.06 644.403 118.199C646.106 155.505 650.365 193.663 632.819 225.518C622.939 243.405 608.459 258.396 596.705 275.43C558.888 329.431 588.018 376.617 611.015 428.743C612.207 431.299 613.229 433.854 614.422 436.58C628.901 471.841 638.611 508.977 641.507 546.965C642.188 556.334 642.018 565.362 641.337 574.391C638.27 607.779 626.516 638.441 616.806 672" stroke="url(#paint35_linear_170_2339)" stroke-miterlimit="10"/>
<path d="M649.003 1C665.868 23.6563 664.845 50.5715 662.461 77.1458C658.032 123.991 673.704 182.08 648.663 224.667C638.271 242.553 623.621 257.544 611.697 274.408C573.199 328.579 604.031 375.425 628.05 428.062C645.085 465.368 655.476 505.57 658.713 546.454C662.29 591.426 646.448 629.243 634.013 671.659" stroke="url(#paint36_linear_170_2339)" stroke-miterlimit="10"/>
</g>
<defs>
<linearGradient id="paint0_linear_170_2339" x1="0.230874" y1="336.238" x2="79.2596" y2="336.238" gradientUnits="userSpaceOnUse">
<stop stop-color="white"/>
<stop offset="1"/>
</linearGradient>
<linearGradient id="paint1_linear_170_2339" x1="17.8131" y1="336.238" x2="94.9573" y2="336.238" gradientUnits="userSpaceOnUse">
<stop stop-color="white"/>
<stop offset="1"/>
</linearGradient>
<linearGradient id="paint2_linear_170_2339" x1="35.3949" y1="336.238" x2="110.677" y2="336.238" gradientUnits="userSpaceOnUse">
<stop stop-color="white"/>
<stop offset="1"/>
</linearGradient>
<linearGradient id="paint3_linear_170_2339" x1="52.9756" y1="336.238" x2="126.408" y2="336.238" gradientUnits="userSpaceOnUse">
<stop stop-color="white"/>
<stop offset="1"/>
</linearGradient>
<linearGradient id="paint4_linear_170_2339" x1="70.5577" y1="336.238" x2="142.156" y2="336.238" gradientUnits="userSpaceOnUse">
<stop stop-color="white"/>
<stop offset="1"/>
</linearGradient>
<linearGradient id="paint5_linear_170_2339" x1="88.139" y1="336.238" x2="157.916" y2="336.238" gradientUnits="userSpaceOnUse">
<stop stop-color="white"/>
<stop offset="1"/>
</linearGradient>
<linearGradient id="paint6_linear_170_2339" x1="105.721" y1="336.238" x2="173.692" y2="336.238" gradientUnits="userSpaceOnUse">
<stop stop-color="white"/>
<stop offset="1"/>
</linearGradient>
<linearGradient id="paint7_linear_170_2339" x1="123.301" y1="336.238" x2="189.48" y2="336.238" gradientUnits="userSpaceOnUse">
<stop stop-color="white"/>
<stop offset="1"/>
</linearGradient>
<linearGradient id="paint8_linear_170_2339" x1="140.883" y1="336.238" x2="205.283" y2="336.238" gradientUnits="userSpaceOnUse">
<stop stop-color="white"/>
<stop offset="1"/>
</linearGradient>
<linearGradient id="paint9_linear_170_2339" x1="158.466" y1="336.238" x2="221.101" y2="336.238" gradientUnits="userSpaceOnUse">
<stop stop-color="white"/>
<stop offset="1"/>
</linearGradient>
<linearGradient id="paint10_linear_170_2339" x1="176.047" y1="336.238" x2="236.931" y2="336.238" gradientUnits="userSpaceOnUse">
<stop stop-color="white"/>
<stop offset="1"/>
</linearGradient>
<linearGradient id="paint11_linear_170_2339" x1="193.628" y1="336.238" x2="252.774" y2="336.238" gradientUnits="userSpaceOnUse">
<stop stop-color="white"/>
<stop offset="1"/>
</linearGradient>
<linearGradient id="paint12_linear_170_2339" x1="211.211" y1="336.238" x2="268.633" y2="336.238" gradientUnits="userSpaceOnUse">
<stop stop-color="white"/>
<stop offset="1"/>
</linearGradient>
<linearGradient id="paint13_linear_170_2339" x1="228.791" y1="336.238" x2="284.525" y2="336.238" gradientUnits="userSpaceOnUse">
<stop stop-color="white"/>
<stop offset="1"/>
</linearGradient>
<linearGradient id="paint14_linear_170_2339" x1="246.375" y1="336.238" x2="300.493" y2="336.238" gradientUnits="userSpaceOnUse">
<stop stop-color="white"/>
<stop offset="1"/>
</linearGradient>
<linearGradient id="paint15_linear_170_2339" x1="263.955" y1="336.238" x2="316.521" y2="336.238" gradientUnits="userSpaceOnUse">
<stop stop-color="white"/>
<stop offset="1"/>
</linearGradient>
<linearGradient id="paint16_linear_170_2339" x1="281.536" y1="336.238" x2="332.604" y2="336.238" gradientUnits="userSpaceOnUse">
<stop stop-color="white"/>
<stop offset="1"/>
</linearGradient>
<linearGradient id="paint17_linear_170_2339" x1="298.539" y1="336.238" x2="348.74" y2="336.238" gradientUnits="userSpaceOnUse">
<stop stop-color="white"/>
<stop offset="1"/>
</linearGradient>
<linearGradient id="paint18_linear_170_2339" x1="314.714" y1="336.238" x2="364.918" y2="336.238" gradientUnits="userSpaceOnUse">
<stop stop-color="white"/>
<stop offset="1"/>
</linearGradient>
<linearGradient id="paint19_linear_170_2339" x1="330.751" y1="336.238" x2="381.138" y2="336.238" gradientUnits="userSpaceOnUse">
<stop stop-color="white"/>
<stop offset="1"/>
</linearGradient>
<linearGradient id="paint20_linear_170_2339" x1="346.66" y1="336.238" x2="397.396" y2="336.238" gradientUnits="userSpaceOnUse">
<stop stop-color="white"/>
<stop offset="1"/>
</linearGradient>
<linearGradient id="paint21_linear_170_2339" x1="362.459" y1="336.238" x2="413.693" y2="336.238" gradientUnits="userSpaceOnUse">
<stop stop-color="white"/>
<stop offset="1"/>
</linearGradient>
<linearGradient id="paint22_linear_170_2339" x1="378.159" y1="336.238" x2="430.026" y2="336.238" gradientUnits="userSpaceOnUse">
<stop stop-color="white"/>
<stop offset="1"/>
</linearGradient>
<linearGradient id="paint23_linear_170_2339" x1="393.778" y1="336.238" x2="446.399" y2="336.238" gradientUnits="userSpaceOnUse">
<stop stop-color="white"/>
<stop offset="1"/>
</linearGradient>
<linearGradient id="paint24_linear_170_2339" x1="409.322" y1="336.238" x2="462.809" y2="336.238" gradientUnits="userSpaceOnUse">
<stop stop-color="white"/>
<stop offset="1"/>
</linearGradient>
<linearGradient id="paint25_linear_170_2339" x1="424.806" y1="336.238" x2="479.263" y2="336.238" gradientUnits="userSpaceOnUse">
<stop stop-color="white"/>
<stop offset="1"/>
</linearGradient>
<linearGradient id="paint26_linear_170_2339" x1="440.231" y1="336.238" x2="495.757" y2="336.238" gradientUnits="userSpaceOnUse">
<stop stop-color="white"/>
<stop offset="1"/>
</linearGradient>
<linearGradient id="paint27_linear_170_2339" x1="455.611" y1="336.238" x2="512.299" y2="336.238" gradientUnits="userSpaceOnUse">
<stop stop-color="white"/>
<stop offset="1"/>
</linearGradient>
<linearGradient id="paint28_linear_170_2339" x1="470.95" y1="336.238" x2="528.893" y2="336.238" gradientUnits="userSpaceOnUse">
<stop stop-color="white"/>
<stop offset="1"/>
</linearGradient>
<linearGradient id="paint29_linear_170_2339" x1="486.251" y1="336.238" x2="545.542" y2="336.238" gradientUnits="userSpaceOnUse">
<stop stop-color="white"/>
<stop offset="1"/>
</linearGradient>
<linearGradient id="paint30_linear_170_2339" x1="501.519" y1="336.238" x2="562.251" y2="336.238" gradientUnits="userSpaceOnUse">
<stop stop-color="white"/>
<stop offset="1"/>
</linearGradient>
<linearGradient id="paint31_linear_170_2339" x1="516.758" y1="336.238" x2="579.026" y2="336.238" gradientUnits="userSpaceOnUse">
<stop stop-color="white"/>
<stop offset="1"/>
</linearGradient>
<linearGradient id="paint32_linear_170_2339" x1="531.974" y1="336.238" x2="595.902" y2="336.238" gradientUnits="userSpaceOnUse">
<stop stop-color="white"/>
<stop offset="1"/>
</linearGradient>
<linearGradient id="paint33_linear_170_2339" x1="547.166" y1="336.238" x2="612.827" y2="336.238" gradientUnits="userSpaceOnUse">
<stop stop-color="white"/>
<stop offset="1"/>
</linearGradient>
<linearGradient id="paint34_linear_170_2339" x1="562.337" y1="336.238" x2="629.835" y2="336.238" gradientUnits="userSpaceOnUse">
<stop stop-color="white"/>
<stop offset="1"/>
</linearGradient>
<linearGradient id="paint35_linear_170_2339" x1="577.453" y1="336.238" x2="647.009" y2="336.238" gradientUnits="userSpaceOnUse">
<stop stop-color="white"/>
<stop offset="1"/>
</linearGradient>
<linearGradient id="paint36_linear_170_2339" x1="592.626" y1="336.238" x2="664.673" y2="336.238" gradientUnits="userSpaceOnUse">
<stop stop-color="white"/>
<stop offset="1"/>
</linearGradient>
</defs>
</svg>
