<svg width="14" height="14" viewBox="0 0 14 14" fill="none" xmlns="http://www.w3.org/2000/svg">
<path d="M1.16602 12.8334C1.16602 10.256 3.25535 8.16671 5.83268 8.16671C8.41002 8.16671 10.4993 10.256 10.4993 12.8334H1.16602ZM5.83268 7.58337C3.89893 7.58337 2.33268 6.01712 2.33268 4.08337C2.33268 2.14962 3.89893 0.583374 5.83268 0.583374C7.76643 0.583374 9.33268 2.14962 9.33268 4.08337C9.33268 6.01712 7.76643 7.58337 5.83268 7.58337ZM10.1276 8.88607C11.9275 9.34603 13.2806 10.9221 13.4064 12.8334H11.666C11.666 11.311 11.0828 9.92482 10.1276 8.88607ZM8.94774 7.55823C9.90015 6.70382 10.4993 5.46358 10.4993 4.08337C10.4993 3.25659 10.2843 2.48003 9.90721 1.80655C11.2433 2.07319 12.2493 3.25192 12.2493 4.66671C12.2493 6.27817 10.9441 7.58337 9.33268 7.58337C9.20219 7.58337 9.07368 7.5748 8.94774 7.55823Z" fill="#FF6365"/>
</svg>
