<svg width="187" height="26" viewBox="0 0 187 26" fill="none" xmlns="http://www.w3.org/2000/svg">
<path d="M46.9629 13.8541C46.9629 9.7095 49.8795 6.57227 53.7554 6.57227C55.6071 6.57227 57.1613 7.31102 58.2838 8.53905V6.89846H61.8336V20.8098H58.2838V19.1692C57.1613 20.3972 55.6071 21.136 53.7554 21.136C49.8795 21.136 46.9629 17.9987 46.9629 13.8541ZM58.2934 13.8541C58.2934 11.6763 56.6528 10.0069 54.4462 10.0069C52.2396 10.0069 50.6278 11.6667 50.6278 13.8541C50.6278 16.0415 52.2684 17.7013 54.4462 17.7013C56.6241 17.7013 58.2934 16.0415 58.2934 13.8541Z" fill="white"/>
<path d="M69.1153 20.6754L63.4165 6.89844H67.4556L71.0533 16.3677L74.6511 6.89844H78.6326L70.6888 26.0001H66.8704L69.1058 20.6754H69.1153Z" fill="white"/>
<path d="M78.8823 16.6362H82.4609C82.4609 17.5956 83.3915 18.2192 84.6675 18.2192C85.838 18.2192 86.6631 17.6724 86.6631 16.9336C86.6631 14.6695 79.103 15.9742 79.103 10.9854C79.103 8.17431 81.4535 6.5625 84.5044 6.5625C87.7472 6.5625 89.9922 8.36617 89.9922 10.851H86.4424C86.4424 10.0355 85.6557 9.45991 84.4756 9.45991C83.3819 9.45991 82.6432 9.9492 82.6432 10.6592C82.6432 12.8658 90.2321 11.5898 90.2321 16.5786C90.2321 19.3033 87.9966 21.1358 84.6675 21.1358C81.3384 21.1358 78.8823 19.2554 78.8823 16.6362Z" fill="white"/>
<path d="M97.763 1.98633H102.215L109.449 20.8098H105.333L103.999 17.1544H95.8922L94.5874 20.8098H90.5195L97.7726 1.98633H97.763ZM102.704 13.691L99.9505 6.13095L97.1682 13.691H102.704Z" fill="white"/>
<path d="M107.914 6.89844H111.982L114.793 16.2814L117.767 6.89844H121.393L124.339 16.2814L127.178 6.89844H131.131L126.161 20.8097H122.506L119.532 11.1486L116.529 20.8097H112.874L107.904 6.89844H107.914Z" fill="white"/>
<path d="M131.179 13.8541C131.179 9.7095 134.096 6.57227 137.971 6.57227C139.823 6.57227 141.377 7.31102 142.5 8.53905V6.89846H146.05V20.8098H142.5V19.1692C141.377 20.3972 139.823 21.136 137.971 21.136C134.096 21.136 131.179 17.9987 131.179 13.8541ZM142.5 13.8541C142.5 11.6763 140.859 10.0069 138.653 10.0069C136.446 10.0069 134.834 11.6667 134.834 13.8541C134.834 16.0415 136.475 17.7013 138.653 17.7013C140.831 17.7013 142.5 16.0415 142.5 13.8541Z" fill="white"/>
<path d="M149.158 6.8974H152.708V8.99849C153.802 7.5498 155.298 6.67676 157.131 6.67676H157.649V10.3321H157.131C154.291 10.3321 152.708 11.8287 152.708 14.1792V20.8087H149.158V6.8974Z" fill="white"/>
<path d="M158.186 13.8542C158.186 9.70955 161.102 6.57231 164.978 6.57231C166.83 6.57231 168.384 7.31107 169.507 8.5391V1.1709H173.057V20.8194H169.507V19.1789C168.384 20.4069 166.83 21.1456 164.978 21.1456C161.102 21.1456 158.186 18.0084 158.186 13.8638V13.8542ZM169.507 13.8542C169.507 11.6763 167.866 10.007 165.66 10.007C163.453 10.007 161.841 11.6667 161.841 13.8542C161.841 16.0416 163.482 17.7014 165.66 17.7014C167.837 17.7014 169.507 16.0416 169.507 13.8542Z" fill="white"/>
<path d="M175.35 16.6362H178.928C178.928 17.5956 179.859 18.2192 181.135 18.2192C182.305 18.2192 183.13 17.6724 183.13 16.9336C183.13 14.6695 175.57 15.9742 175.57 10.9854C175.57 8.17431 177.921 6.5625 180.972 6.5625C184.214 6.5625 186.459 8.36617 186.459 10.851H182.91C182.91 10.0355 182.123 9.45991 180.943 9.45991C179.849 9.45991 179.11 9.9492 179.11 10.6592C179.11 12.8658 186.699 11.5898 186.699 16.5786C186.699 19.3033 184.464 21.1358 181.135 21.1358C177.806 21.1358 175.35 19.2554 175.35 16.6362Z" fill="white"/>
<path d="M28.9739 22.6322C28.4558 22.6322 27.9377 22.4979 27.4772 22.2197C26.3835 21.5673 25.8462 20.2913 26.1341 19.0537L29.0027 6.72539L11.8102 21.9031C10.8508 22.7474 9.47887 22.8721 8.38515 22.2197C7.29144 21.5673 6.75418 20.2913 7.042 19.0537L10.0929 5.9195L1.77488 10.3519L0 7.0228L9.97776 1.70773C11.0043 1.16087 12.2036 1.26641 13.1246 1.96677C14.0456 2.67673 14.4486 3.80881 14.1895 4.94091L11.3113 17.3076L28.5038 2.12987C29.4632 1.2856 30.8351 1.16087 31.9289 1.81327C33.0226 2.46566 33.5598 3.74166 33.272 4.97929L30.4034 17.3076L50.004 0L52.4984 2.83023L30.8831 21.9127C30.3362 22.3924 29.6455 22.6418 28.9547 22.6418L28.9739 22.6322Z" fill="white"/>
</svg>
